<svg xmlns="http://www.w3.org/2000/svg" xmlns:xlink="http://www.w3.org/1999/xlink" width="1920" zoomAndPan="magnify" viewBox="0 0 1440 809.999993" height="1080" preserveAspectRatio="xMidYMid meet" version="1.0"><defs><g/></defs><path fill="#f1e3c9" d="M 364.078125 435.8125 L 344.726562 416.460938 C 334.042969 405.777344 316.71875 405.777344 306.042969 416.460938 C 302.0625 420.4375 299.582031 425.335938 298.5625 430.453125 C 266.652344 424.488281 235.617188 393.578125 233.683594 365.953125 C 238.925781 364.976562 243.945312 362.480469 248 358.421875 C 258.683594 347.742188 258.683594 330.414062 248 319.730469 L 228.652344 300.378906 C 217.96875 289.699219 200.644531 289.699219 189.960938 300.378906 C 131.917969 358.421875 306.035156 532.542969 364.078125 474.5 C 374.757812 463.820312 374.757812 446.496094 364.078125 435.8125 Z M 364.078125 435.8125 " fill-opacity="1" fill-rule="nonzero"/><g fill="#f1e3c9" fill-opacity="1"><g transform="translate(444.372992, 442.198165)"><g><path d="M 68.363281 1.8125 C 93.117188 1.8125 111.34375 -10.519531 120.953125 -32.460938 L 107.714844 -38.171875 C 100.460938 -18.222656 85.863281 -11.425781 69.269531 -11.425781 C 37.992188 -11.425781 25.476562 -36.269531 25.476562 -64.554688 C 25.476562 -92.210938 37.628906 -116.871094 68.910156 -116.871094 C 85.230469 -116.871094 102.09375 -110.34375 107.535156 -90.398438 L 120.773438 -96.109375 C 111.703125 -119.773438 93.207031 -130.199219 69.542969 -130.199219 C 28.742188 -130.199219 11.332031 -99.734375 11.332031 -64.375 C 11.332031 -28.199219 29.558594 1.8125 68.363281 1.8125 Z M 68.363281 1.8125 "/></g></g></g><g fill="#f1e3c9" fill-opacity="1"><g transform="translate(573.073828, 442.198165)"><g><path d="M 50.503906 1.8125 C 75.980469 1.8125 93.660156 -19.675781 93.660156 -45.515625 C 93.660156 -71.265625 75.980469 -92.484375 50.503906 -92.484375 C 24.933594 -92.484375 7.796875 -71.265625 7.796875 -45.515625 C 7.796875 -19.675781 24.933594 1.8125 50.503906 1.8125 Z M 50.59375 -9.429688 C 30.644531 -9.429688 21.398438 -27.199219 21.398438 -45.515625 C 21.398438 -63.648438 30.644531 -81.238281 50.773438 -81.238281 C 70.902344 -81.238281 79.96875 -63.648438 79.96875 -45.515625 C 79.96875 -27.5625 70.902344 -9.429688 50.59375 -9.429688 Z M 50.59375 -9.429688 "/></g></g></g><g fill="#f1e3c9" fill-opacity="1"><g transform="translate(674.493711, 442.198165)"><g><path d="M 15.234375 0 L 28.742188 0 L 28.742188 -47.058594 C 28.742188 -69.542969 40.074219 -80.695312 54.3125 -80.695312 C 70.269531 -80.695312 74.894531 -66.1875 74.894531 -53.675781 L 74.894531 0 L 88.3125 0 L 88.3125 -55.035156 C 88.3125 -74.984375 79.515625 -92.210938 57.9375 -92.210938 C 44.789062 -92.210938 34.726562 -85.410156 28.742188 -74.800781 L 28.742188 -90.578125 L 15.234375 -90.578125 Z M 15.234375 0 "/></g></g></g><g fill="#f1e3c9" fill-opacity="1"><g transform="translate(775.913593, 442.198165)"><g><path d="M 40.4375 1.8125 C 45.96875 1.8125 50.59375 0.816406 52.589844 0 L 52.589844 -11.605469 C 49.777344 -10.246094 46.511719 -9.339844 43.519531 -9.339844 C 36.902344 -9.339844 32.007812 -13.964844 32.007812 -23.9375 L 32.007812 -79.515625 L 54.945312 -79.515625 L 54.945312 -90.578125 L 32.007812 -90.578125 L 32.007812 -123.671875 L 18.585938 -110.980469 L 18.585938 -90.578125 L 3.988281 -90.578125 L 3.988281 -79.515625 L 18.496094 -79.515625 L 18.496094 -24.027344 C 18.496094 -8.523438 24.390625 1.8125 40.4375 1.8125 Z M 40.4375 1.8125 "/></g></g></g><g fill="#f1e3c9" fill-opacity="1"><g transform="translate(836.910538, 442.198165)"><g><path d="M 36.359375 1.8125 C 49.234375 1.8125 61.566406 -3.898438 68.183594 -17.5 L 68.457031 0 L 79.96875 0 L 79.96875 -55.582031 C 79.96875 -77.613281 67.546875 -92.484375 44.519531 -92.484375 C 29.558594 -92.484375 18.496094 -85.953125 10.335938 -74.710938 L 20.21875 -67.003906 C 24.570312 -73.261719 32.367188 -80.695312 45.335938 -80.695312 C 61.746094 -80.695312 67.546875 -68.816406 67.546875 -51.773438 L 46.875 -51.773438 C 21.125 -51.773438 6.980469 -43.339844 6.980469 -25.207031 C 6.980469 -8.160156 19.3125 1.8125 36.359375 1.8125 Z M 37.898438 -9.609375 C 28.46875 -9.609375 20.945312 -14.054688 20.945312 -24.84375 C 20.945312 -36.902344 30.191406 -41.527344 48.144531 -41.527344 L 67.546875 -41.527344 C 67.546875 -26.929688 56.488281 -9.609375 37.898438 -9.609375 Z M 37.898438 -9.609375 "/></g></g></g><g fill="#f1e3c9" fill-opacity="1"><g transform="translate(929.810789, 442.198165)"><g><path d="M 47.691406 1.8125 C 64.101562 1.8125 76.433594 -7.164062 81.785156 -22.214844 L 69.996094 -27.292969 C 67.277344 -16.59375 58.480469 -9.609375 47.511719 -9.609375 C 28.5625 -9.609375 22.214844 -28.5625 22.214844 -45.152344 C 22.214844 -61.472656 28.742188 -81.058594 47.511719 -81.058594 C 58.390625 -81.058594 67.277344 -73.894531 69.996094 -62.925781 L 82.78125 -68.363281 C 76.433594 -83.324219 63.921875 -92.484375 47.511719 -92.484375 C 21.398438 -92.484375 8.339844 -69.453125 8.339844 -45.152344 C 8.339844 -20.582031 21.578125 1.8125 47.691406 1.8125 Z M 47.691406 1.8125 "/></g></g></g><g fill="#f1e3c9" fill-opacity="1"><g transform="translate(1018.088685, 442.198165)"><g><path d="M 40.4375 1.8125 C 45.96875 1.8125 50.59375 0.816406 52.589844 0 L 52.589844 -11.605469 C 49.777344 -10.246094 46.511719 -9.339844 43.519531 -9.339844 C 36.902344 -9.339844 32.007812 -13.964844 32.007812 -23.9375 L 32.007812 -79.515625 L 54.945312 -79.515625 L 54.945312 -90.578125 L 32.007812 -90.578125 L 32.007812 -123.671875 L 18.585938 -110.980469 L 18.585938 -90.578125 L 3.988281 -90.578125 L 3.988281 -79.515625 L 18.496094 -79.515625 L 18.496094 -24.027344 C 18.496094 -8.523438 24.390625 1.8125 40.4375 1.8125 Z M 40.4375 1.8125 "/></g></g></g><g fill="#f1e3c9" fill-opacity="1"><g transform="translate(1079.08563, 442.198165)"><g/></g></g><g fill="#f1e3c9" fill-opacity="1"><g transform="translate(1128.118836, 442.198165)"><g><path d="M 44.066406 1.996094 C 58.390625 1.996094 68.910156 -7.527344 72.535156 -15.324219 L 72.535156 0 L 85.953125 0 L 85.953125 -90.578125 L 72.535156 -90.578125 L 72.535156 -40.4375 C 72.535156 -22.667969 60.023438 -9.429688 45.515625 -9.429688 C 30.011719 -9.429688 26.476562 -24.027344 26.476562 -37.082031 L 26.476562 -90.578125 L 12.964844 -90.578125 L 12.964844 -37.992188 C 12.964844 -15.414062 21.761719 1.996094 44.066406 1.996094 Z M 44.066406 1.996094 "/></g></g></g><g fill="#f1e3c9" fill-opacity="1"><g transform="translate(1229.357451, 442.198165)"><g><path d="M 40.347656 1.8125 C 56.035156 1.8125 71.449219 -7.164062 71.449219 -25.839844 C 71.449219 -59.117188 22.578125 -48.144531 22.578125 -69 C 22.578125 -76.433594 28.652344 -81.511719 38.445312 -81.511719 C 48.144531 -81.511719 54.765625 -76.617188 58.664062 -68.726562 L 68.636719 -74.441406 C 63.105469 -85.230469 52.859375 -92.484375 38.898438 -92.484375 C 23.484375 -92.484375 10.15625 -83.6875 10.15625 -67.367188 C 10.15625 -36.628906 58.300781 -48.597656 58.300781 -24.207031 C 58.300781 -14.417969 50.773438 -9.25 40.527344 -9.25 C 28.378906 -9.25 21.125 -16.863281 17.953125 -26.476562 L 6.527344 -20.582031 C 10.699219 -8.613281 23.300781 1.8125 40.347656 1.8125 Z M 40.347656 1.8125 "/></g></g></g></svg>